# xmcd
#
# Track frame offsets:
#	150
#	9677
#	17439
#	27383
#	39457
#	51985
#	60150
#	67464
#	76318
#	83248
#	94114
#	102672
#
# Disc length: 1454 seconds
#
# Revision: 1
# Processed by: cddbd v1.5.2PL0 Copyright (c) Steve Scherf et al.
# Submitted via: audiograbber 1.83.01
#
DISCID=9805ac0c
DTITLE=The Osborne Brothers - Bluegrass Instrumentals
DYEAR=1900
DGENRE=
TTITLE0=Jessie James
TTITLE1=Old Hickory
TTITLE2=Seeing Nellie Home
TTITLE3=John Henry Blues
TTITLE4=Red Wing
TTITLE5=Old Joe Clark
TTITLE6=Walking Cane
TTITLE7=Big Ben
TTITLE8=Banjo Boy Chimes
TTITLE9=Lost Indian
TTITLE10=Billy In The Low Ground
TTITLE11=Cumberland Gap
EXTD=
EXTT0=
EXTT1=
EXTT2=
EXTT3=
EXTT4=
EXTT5=
EXTT6=
EXTT7=
EXTT8=
EXTT9=
EXTT10=
EXTT11=
PLAYORDER=
